<?xml version="1.0" encoding="utf-8"?>
<!-- Generator: Adobe Illustrator 16.0.0, SVG Export Plug-In . SVG Version: 6.00 Build 0)  -->
<!DOCTYPE svg PUBLIC "-//W3C//DTD SVG 1.1//EN" "http://www.w3.org/Graphics/SVG/1.1/DTD/svg11.dtd">
<svg version="1.1" xmlns="http://www.w3.org/2000/svg" xmlns:xlink="http://www.w3.org/1999/xlink" x="0px" y="0px"
	 width="134.075px" height="144px" viewBox="0 0 134.075 144" enable-background="new 0 0 134.075 144" xml:space="preserve">
<g id="Rectangle_1_1_" enable-background="new    ">
	<g>
		
			<path fill="none" stroke="#000000" stroke-width="1.5" stroke-linecap="round" stroke-linejoin="round" stroke-miterlimit="10" d="
			M12.592,33.839"/>
		
			<polyline fill="none" stroke="#000000" stroke-width="1.5" stroke-linecap="round" stroke-linejoin="round" stroke-miterlimit="10" points="
			123.198,110.925 123.198,119.902 67.575,140.47 12.592,119.902 12.592,110.717 		"/>
		
			<line fill="none" stroke="#000000" stroke-width="1.5" stroke-linecap="round" stroke-linejoin="round" stroke-miterlimit="10" x1="123.227" y1="35.347" x2="123.198" y2="78.998"/>
		
			<line fill="none" stroke="#000000" stroke-width="1.5" stroke-linecap="round" stroke-linejoin="round" stroke-miterlimit="10" x1="118.115" y1="78.926" x2="118.115" y2="52.59"/>
		
			<polyline fill="none" stroke="#000000" stroke-width="1.5" stroke-linecap="round" stroke-linejoin="round" stroke-miterlimit="10" points="
			17.903,110.717 17.903,116.928 67.7,135.104 118.115,116.928 118.115,110.717 		"/>
		
			<polyline fill="none" stroke="#000000" stroke-width="1.5" stroke-linecap="round" stroke-linejoin="round" stroke-miterlimit="10" points="
			34.95,32.114 17.909,65.758 17.903,78.998 		"/>
		
			<polyline fill="none" stroke="#000000" stroke-width="1.5" stroke-linecap="round" stroke-linejoin="round" stroke-miterlimit="10" points="
			118.121,65.756 97.978,32.665 95.809,36.684 86.745,21.864 79.472,35.341 65.048,11.757 51.112,37.578 41.501,21.864 
			34.95,32.114 		"/>
		
			<line fill="none" stroke="#000000" stroke-width="1.5" stroke-linecap="round" stroke-linejoin="round" stroke-miterlimit="10" x1="79.291" y1="35.045" x2="84.731" y2="44.072"/>
		
			<line fill="none" stroke="#000000" stroke-width="1.5" stroke-linecap="round" stroke-linejoin="round" stroke-miterlimit="10" x1="50.51" y1="36.674" x2="53.949" y2="42.436"/>
		
			<polyline fill="none" stroke="#000000" stroke-width="1.5" stroke-linecap="round" stroke-linejoin="round" stroke-miterlimit="10" points="
			36.704,29.37 41.069,32.52 45.666,29.37 		"/>
		
			<polyline fill="none" stroke="#000000" stroke-width="1.5" stroke-linecap="round" stroke-linejoin="round" stroke-miterlimit="10" points="
			60.51,21.129 65.577,24.278 70.174,21.129 		"/>
		
			<polyline fill="none" stroke="#000000" stroke-width="1.5" stroke-linecap="round" stroke-linejoin="round" stroke-miterlimit="10" points="
			82.976,29.145 87.164,32.129 90.999,29.116 		"/>
		
			<polygon fill="none" stroke="#000000" stroke-width="1.5" stroke-linecap="round" stroke-linejoin="round" stroke-miterlimit="10" points="
			127.816,110.717 7.584,110.717 7.584,78.998 12.592,78.998 127.816,78.998 		"/>
		<g>
			<text transform="matrix(1 0 0 1 15.6431 101.0381)" font-family="'FORESTCAMPSTAMP'" font-size="19">Camp Bishop</text>
		</g>
		<g>
			
				<line fill="none" stroke="#000000" stroke-width="1.5" stroke-linecap="round" stroke-linejoin="round" stroke-miterlimit="10" x1="12.595" y1="34.798" x2="12.592" y2="78.998"/>
			
				<polyline fill="none" stroke="#000000" stroke-width="1.5" stroke-linecap="round" stroke-linejoin="round" stroke-miterlimit="10" points="
				7.483,39.034 12.595,33.855 17.803,39.034 			"/>
			
				<polyline fill="none" stroke="#000000" stroke-width="1.5" stroke-linecap="round" stroke-linejoin="round" stroke-miterlimit="10" points="
				7.483,45.664 12.595,40.485 17.803,45.664 			"/>
			
				<polyline fill="none" stroke="#000000" stroke-width="1.5" stroke-linecap="round" stroke-linejoin="round" stroke-miterlimit="10" points="
				7.483,52.294 12.595,47.115 17.803,52.294 			"/>
			
				<polyline fill="none" stroke="#000000" stroke-width="1.5" stroke-linecap="round" stroke-linejoin="round" stroke-miterlimit="10" points="
				7.483,58.925 12.595,53.746 17.803,58.925 			"/>
		</g>
		<g>
			
				<line fill="none" stroke="#000000" stroke-width="1.5" stroke-linecap="round" stroke-linejoin="round" stroke-miterlimit="10" x1="123.227" y1="35.347" x2="123.227" y2="76.124"/>
			
				<polyline fill="none" stroke="#000000" stroke-width="1.5" stroke-linecap="round" stroke-linejoin="round" stroke-miterlimit="10" points="
				118.115,39.582 123.227,34.403 128.435,39.582 			"/>
			
				<polyline fill="none" stroke="#000000" stroke-width="1.5" stroke-linecap="round" stroke-linejoin="round" stroke-miterlimit="10" points="
				118.115,46.213 123.227,41.034 128.435,46.213 			"/>
			
				<polyline fill="none" stroke="#000000" stroke-width="1.5" stroke-linecap="round" stroke-linejoin="round" stroke-miterlimit="10" points="
				118.115,52.843 123.227,47.664 128.435,52.843 			"/>
			
				<polyline fill="none" stroke="#000000" stroke-width="1.5" stroke-linecap="round" stroke-linejoin="round" stroke-miterlimit="10" points="
				118.115,59.473 123.227,54.294 128.435,59.473 			"/>
		</g>
		
			<path fill="none" stroke="#000000" stroke-width="1.5" stroke-linecap="round" stroke-linejoin="round" stroke-miterlimit="10" d="
			M17.903,110.717"/>
		
			<path fill="none" stroke="#000000" stroke-width="1.5" stroke-linecap="round" stroke-linejoin="round" stroke-miterlimit="10" d="
			M17.803,87.154"/>
	</g>
	<path fill="none" stroke="#000000" stroke-width="1.5" stroke-linecap="round" stroke-linejoin="round" stroke-miterlimit="10" d="
		M-0.234,139.756"/>
	<path fill="none" stroke="#000000" stroke-width="1.5" stroke-linecap="round" stroke-linejoin="round" stroke-miterlimit="10" d="
		M46.499,12.643c-0.649-3.24,1.45-6.394,4.69-7.044c0.326-0.065,0.649-0.096,0.971-0.106c-1.583-1.032-3.555-1.47-5.554-1.068
		c-4.05,0.812-6.674,4.754-5.861,8.803c0.812,4.051,4.754,6.675,8.803,5.862c1.311-0.263,2.471-0.854,3.414-1.67
		C49.934,17.726,47.11,15.689,46.499,12.643z"/>
	<text transform="matrix(1 0 0 1 50.9097 119.8633)"><tspan x="0" y="0" font-family="'FORESTCAMPEDGE'" font-size="10">oak cliff</tspan><tspan x="13.13" y="9" font-family="'FORESTCAMPEDGE'" font-size="10">tx</tspan></text>
</g>
<g id="Layer_14">
	
		<polyline fill="none" stroke="#000000" stroke-width="1.5" stroke-linecap="round" stroke-linejoin="round" stroke-miterlimit="10" points="
		66.914,14.807 68.449,14.239 123.433,34.807 123.433,43.993 	"/>
	<path fill="none" stroke="#000000" stroke-width="1.5" stroke-linecap="round" stroke-linejoin="round" stroke-miterlimit="10" d="
		M66.914,14.807"/>
	<path fill="none" stroke="#000000" stroke-width="1.5" stroke-linecap="round" stroke-linejoin="round" stroke-miterlimit="10" d="
		M62.257,16.529"/>
	
		<line fill="none" stroke="#000000" stroke-width="1.5" stroke-linecap="round" stroke-linejoin="round" stroke-miterlimit="10" x1="42.668" y1="23.772" x2="62.257" y2="16.529"/>
	<path fill="none" stroke="#000000" stroke-width="1.5" stroke-linecap="round" stroke-linejoin="round" stroke-miterlimit="10" d="
		M42.668,23.772"/>
	<path fill="none" stroke="#000000" stroke-width="1.5" stroke-linecap="round" stroke-linejoin="round" stroke-miterlimit="10" d="
		M38.991,25.132"/>
	
		<polyline fill="none" stroke="#000000" stroke-width="1.5" stroke-linecap="round" stroke-linejoin="round" stroke-miterlimit="10" points="
		12.826,43.784 12.826,34.807 38.991,25.132 	"/>
	
		<polyline fill="none" stroke="#000000" stroke-width="1.5" stroke-linecap="round" stroke-linejoin="round" stroke-miterlimit="10" points="
		35.698,30.945 17.909,37.782 17.909,65.758 	"/>
	<path fill="none" stroke="#000000" stroke-width="1.5" stroke-linecap="round" stroke-linejoin="round" stroke-miterlimit="10" d="
		M34.341,31.858"/>
	<path fill="none" stroke="#000000" stroke-width="1.5" stroke-linecap="round" stroke-linejoin="round" stroke-miterlimit="10" d="
		M45.216,27.938"/>
	
		<line fill="none" stroke="#000000" stroke-width="1.5" stroke-linecap="round" stroke-linejoin="round" stroke-miterlimit="10" x1="58.997" y1="22.968" x2="45.216" y2="27.938"/>
	
		<line fill="none" stroke="#000000" stroke-width="1.5" stroke-linecap="round" stroke-linejoin="round" stroke-miterlimit="10" x1="84.731" y1="25.594" x2="70.292" y2="20.323"/>
	<path fill="none" stroke="#000000" stroke-width="1.5" stroke-linecap="round" stroke-linejoin="round" stroke-miterlimit="10" d="
		M84.731,25.594"/>
	
		<polyline fill="none" stroke="#000000" stroke-width="1.5" stroke-linecap="round" stroke-linejoin="round" stroke-miterlimit="10" points="
		118.121,65.756 118.121,37.782 90.261,27.613 	"/>
	<path fill="none" stroke="#000000" stroke-width="1.5" stroke-linecap="round" stroke-linejoin="round" stroke-miterlimit="10" d="
		M0,43.278"/>
</g>
<g id="Layer_12">
	<circle fill="none" cx="66.771" cy="61.457" r="20.385"/>
	
		<line fill="#FFEDD2" stroke="#000000" stroke-width="1.5" stroke-linecap="round" stroke-linejoin="round" stroke-miterlimit="10" x1="44.248" y1="60.254" x2="49.312" y2="62.4"/>
	
		<line fill="#FFEDD2" stroke="#000000" stroke-width="1.5" stroke-linecap="round" stroke-linejoin="round" stroke-miterlimit="10" x1="50.397" y1="50.788" x2="54.204" y2="54.757"/>
	
		<line fill="#FFEDD2" stroke="#000000" stroke-width="1.5" stroke-linecap="round" stroke-linejoin="round" stroke-miterlimit="10" x1="67.558" y1="45.038" x2="67.442" y2="50.536"/>
	
		<line fill="#FFEDD2" stroke="#000000" stroke-width="1.5" stroke-linecap="round" stroke-linejoin="round" stroke-miterlimit="10" x1="42.674" y1="70.49" x2="48.161" y2="70.112"/>
	
		<line fill="#FFEDD2" stroke="#000000" stroke-width="1.5" stroke-linecap="round" stroke-linejoin="round" stroke-miterlimit="10" x1="89.318" y1="62.661" x2="84.055" y2="64.256"/>
	
		<line fill="#FFEDD2" stroke="#000000" stroke-width="1.5" stroke-linecap="round" stroke-linejoin="round" stroke-miterlimit="10" x1="84.213" y1="52.593" x2="80.004" y2="56.135"/>
	
		<line fill="#FFEDD2" stroke="#000000" stroke-width="1.5" stroke-linecap="round" stroke-linejoin="round" stroke-miterlimit="10" x1="89.793" y1="73.006" x2="84.378" y2="72.046"/>
	<circle cx="86.554" cy="50.486" r="0.622"/>
	<circle cx="48.244" cy="56.894" r="0.622"/>
	<circle cx="86.823" cy="68.29" r="0.622"/>
	<circle cx="47.311" cy="74.371" r="0.622"/>
	
		<line fill="#FFEDD2" stroke="#000000" stroke-width="1.5" stroke-linecap="round" stroke-linejoin="round" stroke-miterlimit="10" x1="60.275" y1="48.093" x2="60.127" y2="50.867"/>
	
		<line fill="#FFEDD2" stroke="#000000" stroke-width="1.5" stroke-linecap="round" stroke-linejoin="round" stroke-miterlimit="10" x1="61.589" y1="49.553" x2="58.814" y2="49.405"/>
	
		<line fill="#FFEDD2" stroke="#000000" stroke-width="1.5" stroke-linecap="round" stroke-linejoin="round" stroke-miterlimit="10" x1="73.78" y1="50.204" x2="74.794" y2="52.791"/>
	
		<line fill="#FFEDD2" stroke="#000000" stroke-width="1.5" stroke-linecap="round" stroke-linejoin="round" stroke-miterlimit="10" x1="75.58" y1="50.991" x2="72.994" y2="52.004"/>
	<g>
		<defs>
			<polygon id="SVGID_1_" points="53.967,76.938 80.725,74.647 81.081,67.984 77.347,57.825 62.747,52.147 51.847,61.599 			"/>
		</defs>
		<clipPath id="SVGID_2_">
			<use xlink:href="#SVGID_1_"  overflow="visible"/>
		</clipPath>
		
			<path clip-path="url(#SVGID_2_)" fill="none" stroke="#000000" stroke-width="1.5" stroke-linecap="round" stroke-linejoin="round" stroke-miterlimit="10" d="
			M75.601,60.476c0.977,4.599-4.045,4.095-4.045,4.095c1.347-8.961-8.79-10.197-8.79-10.197c3.786,8.019-3.575,9.896-3.575,9.896
			c-2.447-0.639-1.975-3.999-1.975-3.999c-3.624,2.739-3.272,9.035-3.312,9.769c-0.362,6.784,4.844,12.579,11.627,12.94
			c6.785,0.362,12.794-4.85,13.156-11.635c0.017-0.312,0.043-0.873,0.059-1.108C79.357,64.807,75.601,60.476,75.601,60.476z"/>
		
			<path clip-path="url(#SVGID_2_)" fill="none" stroke="#000000" stroke-width="1.5" stroke-linecap="round" stroke-linejoin="round" stroke-miterlimit="10" d="
			M72.06,68.172c0.628,2.959-2.602,2.635-2.602,2.635c0.866-5.766-5.657-6.561-5.657-6.561c2.437,5.159-2.3,6.366-2.3,6.366
			c-1.574-0.409-1.271-2.572-1.271-2.572c-2.332,1.762-2.106,5.814-2.131,6.283c-0.233,4.366,3.118,8.095,7.482,8.327
			c4.366,0.234,8.232-3.119,8.465-7.484c0.01-0.201,0.027-0.562,0.038-0.714C74.477,70.958,72.06,68.172,72.06,68.172z"/>
	</g>
</g>
<g id="Layer_0_copy_2_xA0_Image_1_">
</g>
<g id="Layer_0_copy_xA0_Image_1_">
</g>
<g id="Layer_4_xA0_Image_1_">
</g>
<g id="Layer_7_xA0_Image_1_">
</g>
<g id="_x0D_">
</g>
<g id="BURNIN_x2019___SINCE__x0D_2018">
</g>
<g id="Layer_3_xA0_Image_1_">
</g>
<g id="Layer_2_xA0_Image_1_">
</g>
<g id="moon_xA0_Image_1_">
</g>
<g id="Layer_1_copy_2_xA0_Image_1_">
</g>
<g id="Layer_13">
</g>
</svg>
